# xmcd CD database file
#
# Track frame offsets:
#	150
#	33722
#	62671
#	91850
#	116775
#	142902
#	161654
#	183980
#	198442
#
# Disc length: 2809 seconds
#
# Revision: 0
# Processed by: cddbd v1.5.2PL0 Copyright (c) Steve Scherf et al.
# Submitted via: CDex 1.70beta3
#
DISCID=790af709
DTITLE=白木秀雄 - 祭の幻想
DYEAR=1961
DGENRE=Jazz
TTITLE0=祭の幻想
TTITLE1=ファイブ・スポット・アフター・ダーク
TTITLE2=ジャスト・ワン・オア・エイト
TTITLE3=チェロキー
TTITLE4=ブルー・ロメオ
TTITLE5=エチュードNo.1
TTITLE6=ユー・ドント・ノウ・ホワット・ラブ・イズ
TTITLE7=ドクター・キルディア
TTITLE8=ジャダ
EXTD=YEAR: 1961
EXTT0=
EXTT1=
EXTT2=
EXTT3=
EXTT4=
EXTT5=
EXTT6=
EXTT7=
EXTT8=
PLAYORDER=
